<mxfile host="Electron" modified="2024-05-01T11:48:46.580Z" agent="Mozilla/5.0 (Windows NT 10.0; Win64; x64) AppleWebKit/537.36 (KHTML, like Gecko) draw.io/21.2.8 Chrome/112.0.5615.165 Electron/24.2.0 Safari/537.36" etag="betS-kHGCnfedxGIlSDw" version="21.2.8" type="device">
  <diagram name="Page-1" id="ac0-5Axkzdwwxx8cRdzC">
    <mxGraphModel dx="1538" dy="463" grid="1" gridSize="10" guides="1" tooltips="1" connect="1" arrows="1" fold="1" page="1" pageScale="1" pageWidth="827" pageHeight="1169" math="0" shadow="0">
      <root>
        <mxCell id="0" />
        <mxCell id="1" parent="0" />
        <mxCell id="ugWdAH9gTy0CYIlYv7zM-1" value="&lt;font face=&quot;Verdana&quot; style=&quot;font-size: 16px;&quot;&gt;&lt;b&gt;0&lt;/b&gt;&lt;/font&gt;" style="rounded=0;whiteSpace=wrap;html=1;fillColor=#e1d5e7;strokeColor=#0d0c0d;" parent="1" vertex="1">
          <mxGeometry x="-720" y="240" width="40" height="30" as="geometry" />
        </mxCell>
        <mxCell id="ugWdAH9gTy0CYIlYv7zM-2" value="&lt;font face=&quot;Verdana&quot; style=&quot;font-size: 16px;&quot;&gt;&lt;b&gt;3&lt;/b&gt;&lt;/font&gt;" style="rounded=0;whiteSpace=wrap;html=1;fillColor=#b1ddf0;strokeColor=#000000;" parent="1" vertex="1">
          <mxGeometry x="-560" y="150" width="40" height="90" as="geometry" />
        </mxCell>
        <mxCell id="ugWdAH9gTy0CYIlYv7zM-3" value="&lt;font face=&quot;Verdana&quot; style=&quot;font-size: 16px;&quot;&gt;&lt;b&gt;2&lt;/b&gt;&lt;/font&gt;" style="rounded=0;whiteSpace=wrap;html=1;fillColor=#b1ddf0;strokeColor=#000000;" parent="1" vertex="1">
          <mxGeometry x="-520" y="180" width="40" height="60" as="geometry" />
        </mxCell>
        <mxCell id="ugWdAH9gTy0CYIlYv7zM-4" value="&lt;font face=&quot;Verdana&quot; style=&quot;font-size: 16px;&quot;&gt;&lt;b&gt;1&lt;/b&gt;&lt;/font&gt;" style="rounded=0;whiteSpace=wrap;html=1;fillColor=#b1ddf0;strokeColor=#000000;" parent="1" vertex="1">
          <mxGeometry x="-600" y="210" width="40" height="30" as="geometry" />
        </mxCell>
        <mxCell id="ugWdAH9gTy0CYIlYv7zM-5" value="&lt;font face=&quot;Verdana&quot; style=&quot;font-size: 16px;&quot;&gt;&lt;b&gt;1&lt;/b&gt;&lt;/font&gt;" style="rounded=0;whiteSpace=wrap;html=1;fillColor=#e1d5e7;strokeColor=#0d0c0d;" parent="1" vertex="1">
          <mxGeometry x="-680" y="240" width="40" height="30" as="geometry" />
        </mxCell>
        <mxCell id="ugWdAH9gTy0CYIlYv7zM-6" value="&lt;font face=&quot;Verdana&quot; style=&quot;font-size: 16px;&quot;&gt;&lt;b&gt;2&lt;/b&gt;&lt;/font&gt;" style="rounded=0;whiteSpace=wrap;html=1;fillColor=#e1d5e7;strokeColor=#0d0c0d;" parent="1" vertex="1">
          <mxGeometry x="-640" y="240" width="40" height="30" as="geometry" />
        </mxCell>
        <mxCell id="DwyBziVhjBW1dfS6EaBD-1" value="&lt;font face=&quot;Verdana&quot; style=&quot;font-size: 16px;&quot;&gt;&lt;b&gt;3&lt;/b&gt;&lt;/font&gt;" style="rounded=0;whiteSpace=wrap;html=1;fillColor=#e1d5e7;strokeColor=#0d0c0d;" vertex="1" parent="1">
          <mxGeometry x="-600" y="240" width="40" height="30" as="geometry" />
        </mxCell>
        <mxCell id="DwyBziVhjBW1dfS6EaBD-2" value="&lt;font face=&quot;Verdana&quot; style=&quot;font-size: 16px;&quot;&gt;&lt;b&gt;4&lt;/b&gt;&lt;/font&gt;" style="rounded=0;whiteSpace=wrap;html=1;fillColor=#e1d5e7;strokeColor=#0d0c0d;" vertex="1" parent="1">
          <mxGeometry x="-560" y="240" width="40" height="30" as="geometry" />
        </mxCell>
        <mxCell id="DwyBziVhjBW1dfS6EaBD-3" value="&lt;font face=&quot;Verdana&quot; style=&quot;font-size: 16px;&quot;&gt;&lt;b&gt;5&lt;/b&gt;&lt;/font&gt;" style="rounded=0;whiteSpace=wrap;html=1;fillColor=#e1d5e7;strokeColor=#0d0c0d;" vertex="1" parent="1">
          <mxGeometry x="-520" y="240" width="40" height="30" as="geometry" />
        </mxCell>
        <mxCell id="DwyBziVhjBW1dfS6EaBD-5" value="&lt;font face=&quot;Verdana&quot; style=&quot;font-size: 16px;&quot;&gt;&lt;b&gt;4&lt;/b&gt;&lt;/font&gt;" style="rounded=0;whiteSpace=wrap;html=1;fillColor=#b1ddf0;strokeColor=#000000;" vertex="1" parent="1">
          <mxGeometry x="-680" y="120" width="40" height="120" as="geometry" />
        </mxCell>
        <mxCell id="DwyBziVhjBW1dfS6EaBD-6" value="&lt;font face=&quot;Verdana&quot;&gt;&lt;span style=&quot;font-size: 16px;&quot;&gt;&lt;b&gt;5&lt;/b&gt;&lt;/span&gt;&lt;/font&gt;" style="rounded=0;whiteSpace=wrap;html=1;fillColor=#b1ddf0;strokeColor=#000000;" vertex="1" parent="1">
          <mxGeometry x="-720" y="90" width="40" height="150" as="geometry" />
        </mxCell>
        <mxCell id="DwyBziVhjBW1dfS6EaBD-7" value="&lt;font face=&quot;Verdana&quot;&gt;&lt;span style=&quot;font-size: 16px;&quot;&gt;&lt;b&gt;6&lt;/b&gt;&lt;/span&gt;&lt;/font&gt;" style="rounded=0;whiteSpace=wrap;html=1;fillColor=#b1ddf0;strokeColor=#000000;" vertex="1" parent="1">
          <mxGeometry x="-640" y="60" width="40" height="180" as="geometry" />
        </mxCell>
        <mxCell id="DwyBziVhjBW1dfS6EaBD-8" value="&lt;font face=&quot;Verdana&quot; style=&quot;font-size: 16px;&quot;&gt;&lt;b&gt;0&lt;/b&gt;&lt;/font&gt;" style="rounded=0;whiteSpace=wrap;html=1;fillColor=#e1d5e7;strokeColor=#0d0c0d;" vertex="1" parent="1">
          <mxGeometry x="-440" y="240" width="40" height="30" as="geometry" />
        </mxCell>
        <mxCell id="DwyBziVhjBW1dfS6EaBD-9" value="&lt;font face=&quot;Verdana&quot; style=&quot;font-size: 16px;&quot;&gt;&lt;b&gt;3&lt;/b&gt;&lt;/font&gt;" style="rounded=0;whiteSpace=wrap;html=1;fillColor=#b1ddf0;strokeColor=#000000;" vertex="1" parent="1">
          <mxGeometry x="-280" y="150" width="40" height="90" as="geometry" />
        </mxCell>
        <mxCell id="DwyBziVhjBW1dfS6EaBD-20" style="edgeStyle=orthogonalEdgeStyle;rounded=0;orthogonalLoop=1;jettySize=auto;html=1;exitX=0.5;exitY=0;exitDx=0;exitDy=0;entryX=0.5;entryY=0;entryDx=0;entryDy=0;startArrow=classic;startFill=1;" edge="1" parent="1" source="DwyBziVhjBW1dfS6EaBD-10" target="DwyBziVhjBW1dfS6EaBD-19">
          <mxGeometry relative="1" as="geometry" />
        </mxCell>
        <mxCell id="DwyBziVhjBW1dfS6EaBD-10" value="&lt;font face=&quot;Verdana&quot; style=&quot;font-size: 16px;&quot;&gt;&lt;b&gt;2&lt;/b&gt;&lt;/font&gt;" style="rounded=0;whiteSpace=wrap;html=1;fillColor=#b1ddf0;strokeColor=#000000;" vertex="1" parent="1">
          <mxGeometry x="-360" y="180" width="40" height="60" as="geometry" />
        </mxCell>
        <mxCell id="DwyBziVhjBW1dfS6EaBD-11" value="&lt;font face=&quot;Verdana&quot; style=&quot;font-size: 16px;&quot;&gt;&lt;b&gt;1&lt;/b&gt;&lt;/font&gt;" style="rounded=0;whiteSpace=wrap;html=1;fillColor=#b1ddf0;strokeColor=#000000;" vertex="1" parent="1">
          <mxGeometry x="-320" y="210" width="40" height="30" as="geometry" />
        </mxCell>
        <mxCell id="DwyBziVhjBW1dfS6EaBD-12" value="&lt;font face=&quot;Verdana&quot; style=&quot;font-size: 16px;&quot;&gt;&lt;b&gt;1&lt;/b&gt;&lt;/font&gt;" style="rounded=0;whiteSpace=wrap;html=1;fillColor=#e1d5e7;strokeColor=#0d0c0d;" vertex="1" parent="1">
          <mxGeometry x="-400" y="240" width="40" height="30" as="geometry" />
        </mxCell>
        <mxCell id="DwyBziVhjBW1dfS6EaBD-13" value="&lt;font face=&quot;Verdana&quot; style=&quot;font-size: 16px;&quot;&gt;&lt;b&gt;2&lt;/b&gt;&lt;/font&gt;" style="rounded=0;whiteSpace=wrap;html=1;fillColor=#e1d5e7;strokeColor=#0d0c0d;" vertex="1" parent="1">
          <mxGeometry x="-360" y="240" width="40" height="30" as="geometry" />
        </mxCell>
        <mxCell id="DwyBziVhjBW1dfS6EaBD-14" value="&lt;font face=&quot;Verdana&quot; style=&quot;font-size: 16px;&quot;&gt;&lt;b&gt;3&lt;/b&gt;&lt;/font&gt;" style="rounded=0;whiteSpace=wrap;html=1;fillColor=#e1d5e7;strokeColor=#0d0c0d;" vertex="1" parent="1">
          <mxGeometry x="-320" y="240" width="40" height="30" as="geometry" />
        </mxCell>
        <mxCell id="DwyBziVhjBW1dfS6EaBD-15" value="&lt;font face=&quot;Verdana&quot; style=&quot;font-size: 16px;&quot;&gt;&lt;b&gt;4&lt;/b&gt;&lt;/font&gt;" style="rounded=0;whiteSpace=wrap;html=1;fillColor=#e1d5e7;strokeColor=#0d0c0d;" vertex="1" parent="1">
          <mxGeometry x="-280" y="240" width="40" height="30" as="geometry" />
        </mxCell>
        <mxCell id="DwyBziVhjBW1dfS6EaBD-16" value="&lt;font face=&quot;Verdana&quot; style=&quot;font-size: 16px;&quot;&gt;&lt;b&gt;5&lt;/b&gt;&lt;/font&gt;" style="rounded=0;whiteSpace=wrap;html=1;fillColor=#e1d5e7;strokeColor=#0d0c0d;" vertex="1" parent="1">
          <mxGeometry x="-240" y="240" width="40" height="30" as="geometry" />
        </mxCell>
        <mxCell id="DwyBziVhjBW1dfS6EaBD-17" value="&lt;font face=&quot;Verdana&quot; style=&quot;font-size: 16px;&quot;&gt;&lt;b&gt;4&lt;/b&gt;&lt;/font&gt;" style="rounded=0;whiteSpace=wrap;html=1;fillColor=#b1ddf0;strokeColor=#000000;" vertex="1" parent="1">
          <mxGeometry x="-400" y="120" width="40" height="120" as="geometry" />
        </mxCell>
        <mxCell id="DwyBziVhjBW1dfS6EaBD-18" value="&lt;font face=&quot;Verdana&quot;&gt;&lt;span style=&quot;font-size: 16px;&quot;&gt;&lt;b&gt;5&lt;/b&gt;&lt;/span&gt;&lt;/font&gt;" style="rounded=0;whiteSpace=wrap;html=1;fillColor=#b1ddf0;strokeColor=#000000;" vertex="1" parent="1">
          <mxGeometry x="-440" y="90" width="40" height="150" as="geometry" />
        </mxCell>
        <mxCell id="DwyBziVhjBW1dfS6EaBD-19" value="&lt;font face=&quot;Verdana&quot;&gt;&lt;span style=&quot;font-size: 16px;&quot;&gt;&lt;b&gt;6&lt;/b&gt;&lt;/span&gt;&lt;/font&gt;" style="rounded=0;whiteSpace=wrap;html=1;fillColor=#bac8d3;strokeColor=#000000;" vertex="1" parent="1">
          <mxGeometry x="-240" y="60" width="40" height="180" as="geometry" />
        </mxCell>
        <mxCell id="DwyBziVhjBW1dfS6EaBD-21" value="&lt;b&gt;&lt;font face=&quot;Verdana&quot; style=&quot;font-size: 19px;&quot;&gt;...&lt;/font&gt;&lt;/b&gt;" style="text;html=1;strokeColor=none;fillColor=none;align=center;verticalAlign=middle;whiteSpace=wrap;rounded=0;" vertex="1" parent="1">
          <mxGeometry x="-180" y="165" width="60" height="30" as="geometry" />
        </mxCell>
        <mxCell id="DwyBziVhjBW1dfS6EaBD-22" value="&lt;font face=&quot;Verdana&quot; style=&quot;font-size: 16px;&quot;&gt;&lt;b&gt;0&lt;/b&gt;&lt;/font&gt;" style="rounded=0;whiteSpace=wrap;html=1;fillColor=#e1d5e7;strokeColor=#0d0c0d;" vertex="1" parent="1">
          <mxGeometry x="-99" y="237" width="40" height="30" as="geometry" />
        </mxCell>
        <mxCell id="DwyBziVhjBW1dfS6EaBD-23" value="&lt;font face=&quot;Verdana&quot; style=&quot;font-size: 16px;&quot;&gt;&lt;b&gt;3&lt;/b&gt;&lt;/font&gt;" style="rounded=0;whiteSpace=wrap;html=1;fillColor=#bac8d3;strokeColor=#0c0d0e;" vertex="1" parent="1">
          <mxGeometry x="-19" y="150" width="40" height="90" as="geometry" />
        </mxCell>
        <mxCell id="DwyBziVhjBW1dfS6EaBD-24" value="&lt;font face=&quot;Verdana&quot; style=&quot;font-size: 16px;&quot;&gt;&lt;b&gt;2&lt;/b&gt;&lt;/font&gt;" style="rounded=0;whiteSpace=wrap;html=1;fillColor=#bac8d3;strokeColor=#0c0d0e;" vertex="1" parent="1">
          <mxGeometry x="-59" y="177" width="40" height="60" as="geometry" />
        </mxCell>
        <mxCell id="DwyBziVhjBW1dfS6EaBD-25" value="&lt;font face=&quot;Verdana&quot; style=&quot;font-size: 16px;&quot;&gt;&lt;b&gt;1&lt;/b&gt;&lt;/font&gt;" style="rounded=0;whiteSpace=wrap;html=1;fillColor=#bac8d3;strokeColor=#0c0d0e;" vertex="1" parent="1">
          <mxGeometry x="-99" y="207" width="40" height="30" as="geometry" />
        </mxCell>
        <mxCell id="DwyBziVhjBW1dfS6EaBD-26" value="&lt;font face=&quot;Verdana&quot; style=&quot;font-size: 16px;&quot;&gt;&lt;b&gt;1&lt;/b&gt;&lt;/font&gt;" style="rounded=0;whiteSpace=wrap;html=1;fillColor=#e1d5e7;strokeColor=#0d0c0d;" vertex="1" parent="1">
          <mxGeometry x="-59" y="237" width="40" height="30" as="geometry" />
        </mxCell>
        <mxCell id="DwyBziVhjBW1dfS6EaBD-27" value="&lt;font face=&quot;Verdana&quot; style=&quot;font-size: 16px;&quot;&gt;&lt;b&gt;2&lt;/b&gt;&lt;/font&gt;" style="rounded=0;whiteSpace=wrap;html=1;fillColor=#e1d5e7;strokeColor=#0d0c0d;" vertex="1" parent="1">
          <mxGeometry x="-19" y="237" width="40" height="30" as="geometry" />
        </mxCell>
        <mxCell id="DwyBziVhjBW1dfS6EaBD-28" value="&lt;font face=&quot;Verdana&quot; style=&quot;font-size: 16px;&quot;&gt;&lt;b&gt;3&lt;/b&gt;&lt;/font&gt;" style="rounded=0;whiteSpace=wrap;html=1;fillColor=#e1d5e7;strokeColor=#0d0c0d;" vertex="1" parent="1">
          <mxGeometry x="21" y="237" width="40" height="30" as="geometry" />
        </mxCell>
        <mxCell id="DwyBziVhjBW1dfS6EaBD-29" value="&lt;font face=&quot;Verdana&quot; style=&quot;font-size: 16px;&quot;&gt;&lt;b&gt;4&lt;/b&gt;&lt;/font&gt;" style="rounded=0;whiteSpace=wrap;html=1;fillColor=#e1d5e7;strokeColor=#0d0c0d;" vertex="1" parent="1">
          <mxGeometry x="61" y="237" width="40" height="30" as="geometry" />
        </mxCell>
        <mxCell id="DwyBziVhjBW1dfS6EaBD-30" value="&lt;font face=&quot;Verdana&quot; style=&quot;font-size: 16px;&quot;&gt;&lt;b&gt;5&lt;/b&gt;&lt;/font&gt;" style="rounded=0;whiteSpace=wrap;html=1;fillColor=#e1d5e7;strokeColor=#0d0c0d;" vertex="1" parent="1">
          <mxGeometry x="101" y="237" width="40" height="30" as="geometry" />
        </mxCell>
        <mxCell id="DwyBziVhjBW1dfS6EaBD-31" value="&lt;font face=&quot;Verdana&quot; style=&quot;font-size: 16px;&quot;&gt;&lt;b&gt;4&lt;/b&gt;&lt;/font&gt;" style="rounded=0;whiteSpace=wrap;html=1;fillColor=#bac8d3;strokeColor=#0c0d0e;" vertex="1" parent="1">
          <mxGeometry x="21" y="117" width="40" height="120" as="geometry" />
        </mxCell>
        <mxCell id="DwyBziVhjBW1dfS6EaBD-32" value="&lt;font face=&quot;Verdana&quot;&gt;&lt;span style=&quot;font-size: 16px;&quot;&gt;&lt;b&gt;5&lt;/b&gt;&lt;/span&gt;&lt;/font&gt;" style="rounded=0;whiteSpace=wrap;html=1;fillColor=#bac8d3;strokeColor=#0c0d0e;" vertex="1" parent="1">
          <mxGeometry x="61" y="87" width="40" height="150" as="geometry" />
        </mxCell>
        <mxCell id="DwyBziVhjBW1dfS6EaBD-33" value="&lt;font face=&quot;Verdana&quot;&gt;&lt;span style=&quot;font-size: 16px;&quot;&gt;&lt;b&gt;6&lt;/b&gt;&lt;/span&gt;&lt;/font&gt;" style="rounded=0;whiteSpace=wrap;html=1;fillColor=#bac8d3;strokeColor=#0c0d0e;" vertex="1" parent="1">
          <mxGeometry x="101" y="57" width="40" height="180" as="geometry" />
        </mxCell>
      </root>
    </mxGraphModel>
  </diagram>
</mxfile>
